<?xml version="1.0" encoding="UTF-8" standalone="no"?>
<!-- Generator: Adobe Illustrator 23.0.3, SVG Export Plug-In . SVG Version: 6.00 Build 0)  -->

<svg
   xmlns:dc="http://purl.org/dc/elements/1.1/"
   xmlns:cc="http://creativecommons.org/ns#"
   xmlns:rdf="http://www.w3.org/1999/02/22-rdf-syntax-ns#"
   xmlns:svg="http://www.w3.org/2000/svg"
   xmlns="http://www.w3.org/2000/svg"
   xmlns:sodipodi="http://sodipodi.sourceforge.net/DTD/sodipodi-0.dtd"
   xmlns:inkscape="http://www.inkscape.org/namespaces/inkscape"
   version="1.1"
   id="レイヤー_1"
   x="0px"
   y="0px"
   viewBox="0 0 71.811019 71.811024"
   xml:space="preserve"
   sodipodi:docname="lube_oishii_KeyCap_19x19.svg"
   inkscape:version="0.92.3 (2405546, 2018-03-11)"
   width="19mm"
   height="19mm"><metadata
   id="metadata75"><rdf:RDF><cc:Work
       rdf:about=""><dc:format>image/svg+xml</dc:format><dc:type
         rdf:resource="http://purl.org/dc/dcmitype/StillImage" /><dc:title></dc:title></cc:Work></rdf:RDF></metadata><defs
   id="defs73" /><sodipodi:namedview
   pagecolor="#ffffff"
   bordercolor="#666666"
   borderopacity="1"
   objecttolerance="10"
   gridtolerance="10"
   guidetolerance="10"
   inkscape:pageopacity="0"
   inkscape:pageshadow="2"
   inkscape:window-width="1920"
   inkscape:window-height="1057"
   id="namedview71"
   showgrid="false"
   inkscape:zoom="4.54892"
   inkscape:cx="18.275144"
   inkscape:cy="28.346191"
   inkscape:window-x="-8"
   inkscape:window-y="-8"
   inkscape:window-maximized="1"
   inkscape:current-layer="layer2"
   units="mm" />
<g
   inkscape:groupmode="layer"
   id="layer2"
   inkscape:label="Layer 2"
   style="display:inline"
   transform="translate(0,-770.07896)"><path
     d="m 36.877975,792.79918 c -1.50951,0.0747 -3.067209,-0.0242 -4.498155,0.55798 -2.477839,0.78853 -5.016451,2.18092 -6.295639,4.55498 -1.258583,2.39151 -1.29799,5.2187 -1.209358,7.88313 0.201318,0.4331 0.315821,0.90022 0.290523,1.38904 -0.05251,0.62302 0.03489,1.24811 0.02306,1.86584 -0.08447,0.48813 -0.565831,0.69999 -0.973678,0.85098 -0.502158,0.23212 -1.168636,0.0528 -1.528701,0.5649 -1.975753,1.63135 -3.020124,4.21996 -2.937337,6.73751 -0.02595,1.47382 -0.283623,2.9794 0.09437,4.42075 0.902831,2.31821 2.652582,4.4862 5.120687,5.25911 1.344403,0.43519 2.860892,0.60873 4.207485,0.0969 0.256586,-0.26504 0.294924,-0.65729 0.463616,-0.97433 1.147693,0.81276 2.467492,1.39689 3.781072,1.82449 1.479256,0.32175 3.034138,0.38085 4.516765,0.0766 1.116514,-0.29786 2.003705,-1.14797 2.555411,-2.12951 0.378307,-0.28842 0.841156,0.11115 0.888859,0.50792 0.741367,1.35559 2.353504,2.0026 3.827681,2.02098 1.362759,0.11928 2.838609,-0.25249 3.786499,-1.30192 0.92245,-1.0087 1.8248,-2.03543 2.74333,-3.04785 0.8434,-0.92991 1.50414,-2.10283 1.45979,-3.38493 0.11452,-2.03819 0.15193,-4.10605 0.0488,-6.1524 -0.30203,-1.97478 -1.42797,-3.93373 -3.22984,-4.88453 -0.62177,-0.29307 -1.3134,-0.41205 -1.99758,-0.41042 0.26657,-3.25737 0.75577,-6.65557 -0.5038,-9.76555 -0.50745,-1.37706 -1.18853,-2.71611 -2.346097,-3.66346 -0.53657,-0.48253 -1.035401,-1.0545 -1.781559,-1.17584 -2.024303,-0.63449 -4.028814,-1.43342 -6.135163,-1.7082 -0.124246,-10e-4 -0.246941,-0.0344 -0.371058,-0.0122 z"
     id="path2-8"
     inkscape:connector-curvature="0"
     style="fill:#ffff80;fill-opacity:1;stroke-width:0.08432393" /><path
     d="m 27.737071,801.87043 c -1.212429,-0.0274 -2.066433,1.17874 -1.995118,2.31183 0.05472,0.86678 0.09984,1.83351 0.640995,2.55755 0.326145,0.1933 0.694353,0.32742 0.991794,0.56062 0.865517,-0.0517 2.025828,-0.33885 2.283828,-1.31246 0.142216,-0.72138 -0.0016,-1.46988 -0.0947,-2.18962 -0.187758,-0.65597 -0.388517,-1.45602 -1.000687,-1.84145 -0.265362,-0.0777 -0.550503,-0.0935 -0.826112,-0.0865 z"
     id="path14-2"
     inkscape:connector-curvature="0"
     style="fill:#ffffff;fill-opacity:1;stroke-width:0.08432393" /><path
     d="m 39.781411,800.36877 c -1.32062,0.0562 -2.509323,1.23008 -2.419702,2.5821 0.02643,1.02278 0.282339,2.0398 0.684967,2.97077 0.302066,0.41123 0.758121,0.7112 1.164889,0.9913 0.987247,0.0442 2.116187,-0.22751 2.653898,-1.14925 0.621933,-0.79014 0.78529,-1.81796 0.671307,-2.79486 0.01428,-1.22227 -0.918341,-2.38005 -2.148522,-2.56131 -0.199827,-0.0365 -0.403972,-0.0499 -0.606837,-0.0387 z"
     id="path8-0"
     inkscape:connector-curvature="0"
     style="fill:#ffffff;fill-opacity:1;stroke:none;stroke-width:0.08432393;stroke-opacity:1" /><path
     style="fill:#ff8000;fill-opacity:0.50196078;stroke-width:0.08432393"
     d="m 32.296242,805.77083 c -0.864599,-0.0576 -1.570137,0.58086 -1.953187,1.29792 -0.375929,0.56035 -1.026562,0.9314 -1.41483,1.47094 -0.07855,0.23754 0.231701,0.53373 -0.08127,0.6776 -0.854322,0.89887 -1.7726,2.01344 -1.624154,3.33816 0.154805,0.58314 0.889091,0.63187 1.372735,0.79021 1.041931,0.19639 2.166937,0.25774 3.140296,-0.23111 1.350196,-0.63447 2.817367,-1.34093 3.635428,-2.64842 0.241533,-0.3166 0.175409,-0.73142 0.311109,-1.06772 0.202657,-0.0371 0.618394,-0.0818 0.455547,-0.40186 -0.184083,-0.19432 -0.302422,-0.40268 -0.365294,-0.65828 -0.272018,-0.43341 -0.821062,-0.57824 -1.099526,-1.01379 -0.636048,-0.69546 -1.330388,-1.58849 -2.376859,-1.55365 z"
     id="path4689"
     inkscape:connector-curvature="0" /><path
     style="fill:#ff0080;fill-opacity:0.50196078;stroke-width:0.08432393"
     d="m 36.388433,809.76958 c -0.583089,0.0216 -0.498194,0.74242 -0.758256,1.0832 -0.157409,0.51922 0.500129,0.7024 0.888201,0.71017 0.487,0.11199 1.102256,-0.0152 1.503502,0.28772 -0.182308,0.30368 -0.580085,-0.0173 -0.858227,0.0382 -0.555234,-0.0351 -1.146835,-0.0612 -1.615659,-0.38325 -0.659455,-0.19656 -1.351037,0.71586 -0.888202,1.27359 0.719635,0.8361 1.79074,1.66597 2.965502,1.3948 0.916841,0.006 2.101583,0.0132 2.640722,-0.87815 0.463526,-1.09204 -0.268093,-2.24721 -1.040709,-2.98872 -0.778078,-0.68284 -1.900072,-0.43895 -2.836874,-0.53757 z"
     id="path4687"
     inkscape:connector-curvature="0" /><path
     d="m 33.920353,812.62325 c -0.23789,0.0591 -0.606283,0.17531 -0.671033,0.368 -5.91e-4,0.42147 0.537192,0.21476 0.835399,0.24236 0.31889,-0.0963 0.126082,-0.63381 -0.164366,-0.61036 z"
     id="path4-3"
     inkscape:connector-curvature="0"
     style="fill:#fffffe;fill-opacity:1;stroke-width:0.08432393" /><path
     style="fill:#fffffe;fill-opacity:1;stroke-width:0.08432393"
     d="m 36.248318,816.22554 c -0.71011,0.23826 -1.420102,0.52151 -2.183463,0.54286 -0.591335,0.11601 -1.359198,0.2291 -1.677815,0.80467 -0.157343,0.38786 0.155051,0.87402 0.588126,0.82578 0.635252,0.2027 1.268517,0.57253 1.897947,0.70078 -0.259135,0.20626 -0.692262,-0.0285 -0.956879,-0.12895 -0.605457,-0.37636 -1.376836,-0.69074 -2.064618,-0.33071 -0.65791,0.25179 -0.952602,1.07868 -0.604926,1.68664 0.187539,0.37184 0.629746,0.40991 0.961317,0.53656 1.317026,0.72626 2.910789,0.48717 4.317328,0.20803 0.813445,-0.13639 1.552172,-0.71612 1.713324,-1.55094 0.178731,-0.5244 -0.222516,-1.08679 -0.768961,-1.11581 -0.421462,-0.0218 -1.14606,-0.14048 -0.985207,-0.72548 0.112833,-0.42928 0.439821,-1.08932 -0.03788,-1.40929 -0.06146,-0.0302 -0.129906,-0.0449 -0.198293,-0.0441 z"
     id="path4728"
     inkscape:connector-curvature="0" /><path
     style="fill:#fffffe;fill-opacity:1;stroke-width:0.08432393"
     d="m 38.454739,819.19516 c -0.02303,1.03123 -0.896873,1.85256 -1.884984,1.99925 -1.72229,0.49957 -3.737446,0.47187 -5.260151,-0.53791 -0.144889,-0.30716 -0.528808,-0.59425 -0.844557,-0.32462 -0.561268,0.3078 -0.424489,1.19491 0.130768,1.43269 1.6423,1.13487 3.754682,0.94262 5.647415,0.92539 1.268593,-0.0881 2.673217,-0.44653 3.496461,-1.48272 0.354996,-0.51961 0.354984,-1.44282 -0.325273,-1.68813 -0.326088,-0.16118 -0.616035,-0.38377 -0.916528,-0.58631 -0.01438,0.0874 -0.02877,0.1749 -0.04315,0.26236 z"
     id="path4726"
     inkscape:connector-curvature="0" /><path
     style="fill:#c8c8c8;fill-opacity:1;stroke-width:0.08432393"
     d="m 40.05445,821.01557 c -0.718222,1.10915 -2.069027,1.55521 -3.300656,1.79008 -1.259702,0.13373 -2.536662,0.0456 -3.802317,-0.002 -1.332257,-0.16132 -2.275547,-0.50106 -3.451164,-1.46213 -0.173252,-0.16199 -0.141303,0.01 -0.185964,0.20765 -0.05438,1.30817 0.358508,2.58777 0.322473,3.89257 0.125506,0.76633 0.977948,0.97186 1.548209,1.31097 1.488801,0.78471 3.162691,1.26915 4.85728,1.14941 1.307293,0.0246 2.790184,-0.26764 3.597272,-1.3948 0.187529,-0.34734 0.492618,-0.61375 0.84851,-0.72977 0.347602,-0.46024 0.04188,-1.06989 0.153657,-1.59028 0.02651,-1.15436 -0.03691,-2.32506 -0.378466,-3.43522 -0.06961,0.0878 -0.139223,0.17567 -0.208834,0.26351 z"
     id="path2-4"
     inkscape:connector-curvature="0"
     sodipodi:nodetypes="cccccccccccccc" /><path
     style="fill:#fae664;fill-opacity:1;stroke:none;stroke-width:0.03187046;stroke-linecap:round;stroke-linejoin:round;stroke-miterlimit:0;stroke-dasharray:none;stroke-opacity:1;paint-order:normal"
     d="m 41.069934,813.01006 c -0.221634,0.001 -0.460482,0.0737 -0.69979,0.24095 -0.01757,0.0123 -0.03513,0.0246 -0.0527,0.0369 -0.103425,0.0746 -0.205111,0.15229 -0.300732,0.2365 -0.232191,0.0206 -0.475044,0.12008 -0.705719,0.32709 -0.05858,0.0527 -0.02855,0.0259 -0.09009,0.08 -0.136118,0.1189 -0.26718,0.24367 -0.376658,0.38819 -0.03882,0.054 -0.07875,0.10724 -0.116439,0.16206 -0.114427,0.16641 -0.176247,0.36563 -0.212951,0.56358 -0.01029,-0.012 -0.01275,-0.0158 -0.02619,-0.0308 -0.105467,-0.11757 -0.22513,-0.21877 -0.357882,-0.30387 0.02818,0.0252 0.0062,0.005 -0.06094,-0.0407 -0.112178,-0.076 -0.228834,-0.14397 -0.351295,-0.20208 -0.167988,-0.0703 -0.339842,-0.12695 -0.51566,-0.17425 -0.108209,-0.0271 -0.21068,-0.0398 -0.308475,-0.0427 -0.196203,-0.41316 -0.61571,-0.7301 -1.259753,-0.73059 -0.05911,0 -0.1181,-8e-5 -0.177212,-1.7e-4 -0.125022,-1.7e-4 -0.250154,-6.7e-4 -0.375176,-3.4e-4 -0.175119,0.001 -0.350721,0.004 -0.524389,0.0288 -0.194742,0.0319 -0.384679,0.0804 -0.571822,0.14295 -0.198857,0.0761 -0.387443,0.17096 -0.57775,0.26598 -0.03865,0.0219 -0.07753,0.0436 -0.115946,0.0659 -0.03745,0.0127 -0.04782,0.017 -0.201587,0.0879 -0.03979,0.0221 -0.07993,0.0436 -0.119403,0.0662 -0.01891,0.0108 -0.07653,0.0404 -0.05567,0.0341 0.0017,-5.1e-4 0.0054,-0.003 0.0074,-0.003 -0.04743,0.0234 -0.06785,0.0336 -0.160578,0.0899 -0.0015,9.2e-4 0.0034,-10e-4 0.0051,-0.002 -0.0018,10e-4 -0.0057,0.003 -0.0082,0.004 -0.0205,0.007 -0.02331,0.007 -0.05155,0.0171 -0.194705,0.0755 -0.256798,0.0994 -0.48404,0.21987 0.0037,-0.002 0.0066,-0.003 0.0048,-9.8e-4 -0.0046,0.006 -0.01335,0.007 -0.02009,0.0109 -0.06771,0.0357 -0.136652,0.0692 -0.203233,0.10688 -0.0564,0.032 -0.107296,0.071 -0.161236,0.10623 -0.07691,0.04 -0.151272,0.0854 -0.22728,0.12698 -0.0038,0.002 -0.0094,0.005 -0.01482,0.008 -0.0045,0.002 -0.0088,0.005 -0.01334,0.008 0.04583,-0.0202 -0.05587,0.0242 -0.03343,0.0188 0.0023,-5.9e-4 0.0051,-10e-4 0.0076,-0.002 -0.0304,0.02 -0.0597,0.0379 -0.05731,0.0213 -0.02472,0.007 -0.0498,0.0136 -0.07378,0.0231 -0.01731,0.007 0.0719,-0.019 0.05402,-0.0138 -0.13198,0.0378 -0.265198,0.0725 -0.38934,0.13308 0.123156,-0.0445 -0.0692,0.03 -0.147732,0.0644 -0.12513,0.0346 -0.247779,0.0656 -0.369575,0.11331 -0.0084,0.003 -0.01199,0.005 -0.02487,0.0104 -1.623366,0.54357 -0.975076,2.93937 0.77489,2.50188 0.08914,0.014 0.153006,-0.0386 0.222833,-0.0751 0.02061,-0.005 0.04131,-0.0101 0.06193,-0.0152 0.187266,-0.0471 0.357306,-0.12247 0.522248,-0.19434 -0.06099,0.0294 0.276093,-0.0893 0.280146,-0.0907 0.182185,-0.062 0.353302,-0.14989 0.519284,-0.24622 0.113927,-0.0601 0.214317,-0.11952 0.339766,-0.19516 0.01618,-0.0107 0.03255,-0.0211 0.04858,-0.032 5.9e-4,-3.4e-4 10e-4,-7.6e-4 0.0016,-10e-4 0.0165,0.0186 0.05842,-0.0334 0.08597,-0.0481 0.03296,-0.0176 0.06534,-0.0363 0.09783,-0.0548 0.02541,-0.0106 0.05068,-0.0214 0.07592,-0.0325 0.177103,-0.0542 0.342787,-0.13481 0.50265,-0.22793 0.07214,-0.043 0.08041,-0.0485 0.07955,-0.0486 -0.0043,0.003 -0.0021,0.002 0.102111,-0.0575 0.140272,-0.0542 0.271035,-0.12447 0.401033,-0.19977 -0.0018,0.002 -0.0076,0.006 -0.0053,0.005 0.01716,-0.007 0.253383,-0.12403 0.191541,-0.0945 0.04811,-0.0132 0.149728,-0.043 0.09009,-0.025 0.03312,0.003 0.107275,2.5e-4 0.15119,0 0.118377,-2.5e-4 0.236706,3.4e-4 0.355083,5.1e-4 0.05984,8e-5 0.119681,8e-5 0.179517,1.6e-4 0.154385,9e-5 0.294738,-0.0195 0.423432,-0.0527 0.145058,0.15241 0.346447,0.2742 0.612666,0.34076 -0.04055,-0.008 -0.04131,-0.009 0.05978,0.0196 0.02676,0.007 0.05345,0.0144 0.08021,0.0216 -0.0065,-0.002 -0.01079,-0.003 -0.0069,-3.4e-4 0.0017,10e-4 0.0063,0.002 0.0092,0.003 -0.0023,-10e-4 -0.0036,-10e-4 -0.0041,-9.9e-4 -0.0035,-10e-4 -0.0065,-0.002 3.37e-4,0.002 0.0075,0.01 0.04844,0.0364 0.08795,0.0611 0.0267,0.0288 0.0535,0.0575 0.08021,0.0863 0.15329,0.14544 0.284659,0.25757 0.454559,0.37946 0.189523,0.13014 0.408501,0.20469 0.627488,0.26779 0.217027,0.0572 0.440946,0.0709 0.664216,0.0769 0.239591,0.0142 0.475333,-0.0103 0.710001,-0.0568 0.323972,-0.0945 0.640781,-0.2604 0.852627,-0.53213 0.06077,-0.0779 0.108501,-0.16538 0.162718,-0.24803 0.135683,-0.24628 0.194869,-0.51945 0.225468,-0.79613 0.0036,-0.0388 0.0054,-0.0777 0.0074,-0.11661 0.274987,-0.0168 0.555876,-0.14523 0.792349,-0.42343 -0.01202,0.0117 -0.0087,0.008 0.06917,-0.0606 0.01214,-0.0106 -0.04852,0.0419 -0.03459,0.0338 0.165402,-0.0964 0.03606,-0.0398 0.07691,-0.0575 0.01594,-0.0111 0.03182,-0.0223 0.04776,-0.0334 1.037001,-0.72474 0.398803,-2.05213 -0.561611,-2.04601 z m -9.564507,1.9322 c 0.0062,-0.002 0.01243,-0.004 0.01861,-0.006 0.006,-0.002 -0.01243,0.003 -0.01861,0.004 -1.69e-4,6.7e-4 8.2e-5,9.1e-4 0,0.001 z m 20.400628,-1.10922 c -0.65539,0 -1.31081,0.4635 -1.31081,1.39036 v 0.31852 0.57577 0.43085 0.31983 0.31309 0.3144 0.32083 c -0.006,0.19309 0.005,0.38484 0.0364,0.57561 0.0197,0.12402 0.0545,0.24468 0.0931,0.36398 0.007,0.0228 -0.0156,-0.0454 -0.0224,-0.0684 -0.009,-0.0399 -0.002,0.0667 -0.002,0.0891 0.001,0.0965 5e-4,0.19291 3.4e-4,0.28937 -2.6e-4,0.10547 -2.6e-4,0.2109 -3.4e-4,0.31638 -4e-5,0.10503 0,0.21019 0,0.31522 0.002,0.0242 1.7e-4,0.10591 -8.4e-4,0.17079 -0.002,0.01 -0.003,0.0192 -0.005,0.0292 -0.0341,0.0873 -0.0632,0.1754 -0.0911,0.25973 -0.0117,0.0208 -0.0234,0.0416 -0.0349,0.0624 0.003,-0.006 0.01,-0.0177 0.007,-0.0137 -0.0173,0.0219 -0.029,0.0477 -0.0435,0.0715 -0.0695,0.13573 -0.13494,0.26153 -0.16338,0.31276 -0.0727,0.12793 -0.13084,0.25327 -0.17672,0.34158 -0.0369,0.0836 -0.0755,0.16275 -0.1082,0.2281 -0.094,0.10926 -0.17808,0.28469 -0.23437,0.40449 -0.10725,0.28578 -0.0808,0.18369 -0.17622,0.44567 0.003,-0.01 0.0138,-0.0377 0.009,-0.0288 -0.0491,0.0924 -0.0755,0.20097 -0.10689,0.29974 -0.007,0.023 0.0166,-0.0456 0.0211,-0.0693 0.003,-0.014 -0.0103,0.0266 -0.0155,0.0399 -0.0179,0.0511 -0.0285,0.0794 -0.0382,0.10886 -0.05,0.096 -0.093,0.19462 -0.13274,0.29645 -0.0599,0.13471 -0.0796,0.16903 -0.11759,0.24392 -0.0105,0.0168 -0.0356,0.0598 -0.0899,0.15646 -0.0153,0.0272 -0.0291,0.055 -0.0432,0.0828 -0.01,0.0161 -0.0181,0.0292 -0.017,0.0219 0.002,-0.0146 0.0166,-0.0243 0.0245,-0.0369 8.7e-4,-10e-4 0.003,-0.006 0.001,-0.005 -0.0662,0.0726 -0.0995,0.11803 -0.0647,0.0715 -0.0462,0.053 -0.12891,0.13314 -0.22629,0.24111 -0.004,-5e-4 -0.0729,0.0627 -0.10244,0.0909 -0.0875,0.0692 -0.13124,0.0996 -0.24507,0.18562 -0.11733,0.10279 -0.21653,0.19546 -0.3284,0.29151 -0.005,4.2e-4 0.002,-0.007 8.4e-4,-0.006 -0.0897,0.062 -0.17889,0.12575 -0.26697,0.19006 -0.16888,0.13545 -0.32507,0.28557 -0.46922,0.44681 0.0107,-0.0121 0.0217,-0.0239 0.0319,-0.0364 10e-4,-0.002 -0.003,0.002 -0.005,0.003 -0.0115,0.01 -0.0226,0.0201 -0.0339,0.0301 -0.0166,0.0148 -0.0338,0.029 -0.0497,0.0445 -0.13554,0.1316 -0.072,0.0836 -0.12254,0.12155 -0.092,0.0852 -0.18264,0.17197 -0.27257,0.25939 -0.12326,0.12356 -0.20879,0.21932 -0.29085,0.31127 -0.1047,0.0413 0.16857,-0.0637 -0.1973,0.073 0.0971,-0.0518 -0.14609,0.0509 -0.1367,0.0435 0.008,-0.006 0.0193,-0.008 0.029,-0.0112 -0.11119,-0.002 -0.2185,0.0526 -0.32956,0.0512 -0.0896,0.004 -0.17943,0.004 -0.269111,0.005 -0.116193,1.7e-4 -0.232303,0 -0.348495,-1.7e-4 -0.114397,-1.7e-4 -0.228828,-1.7e-4 -0.343225,-1.7e-4 -0.11377,-10e-6 -0.227643,0 -0.341413,0 -0.07851,0 -0.157004,0 -0.235514,0 -0.0073,-0.008 -0.01128,-0.0121 -0.01663,-0.018 -0.0106,-0.01 -0.03442,-0.0338 -0.106393,-0.10771 0.01208,0.0119 0.0481,0.0479 0.03623,0.0357 -0.02295,-0.0235 -0.06862,-0.0698 -0.111829,-0.11101 -0.04236,-0.0462 -0.09673,-0.0947 -0.143943,-0.13785 -0.127198,-0.14305 -0.282508,-0.25239 -0.440724,-0.35788 -0.126229,-0.0728 -0.134973,-0.0855 -0.208175,-0.13736 -0.02247,-0.0139 -0.04484,-0.0279 -0.06736,-0.0417 -0.14954,-0.1157 -0.072,-0.0526 -0.01713,-0.0135 -0.106175,-0.11021 -0.218467,-0.21457 -0.334826,-0.31391 -0.07928,-0.0676 -0.02714,-0.0242 -0.15926,-0.12632 -1.490905,-1.10157 -3.048758,1.00686 -1.557852,2.10843 -0.0412,-0.0368 -0.03462,-0.0305 0.02125,0.0171 0.06037,0.0503 0.124213,0.11246 0.211304,0.20224 0.154327,0.14498 0.271056,0.24205 0.449618,0.34916 0.0827,0.0566 0.164135,0.11548 0.250171,0.167 0.0315,0.0328 0.03331,0.0357 0.09223,0.0889 0.0044,0.004 0.0166,0.0162 0.01318,0.0115 -0.0067,-0.009 -0.03116,-0.0331 -0.02306,-0.0252 0.376443,0.36844 -0.15329,-0.15229 0.161402,0.16272 -0.112607,-0.12504 0.07163,0.0776 0.113145,0.11941 0.04461,0.0578 0.07036,0.0964 0.165025,0.18231 0.0656,0.0595 0.132206,0.11791 0.198293,0.17689 0.329521,0.25471 0.668956,0.37492 1.08007,0.39032 h 0.314239 c 0.105528,0 0.21118,0 0.316708,0 0.113653,0 0.227267,-10e-6 0.34092,0 0.113453,0 0.226806,0 0.34026,1.7e-4 0.12019,1.7e-4 0.240491,5.1e-4 0.360682,3.4e-4 0.159433,-5.9e-4 0.319043,-0.002 0.478113,-0.0137 0.0998,-0.009 0.19825,-0.0203 0.29711,-0.0369 0.0382,-0.006 0.0779,-0.008 0.1143,-0.0211 0.007,-0.002 -0.0145,6.7e-4 -0.0217,9.8e-4 0.19924,-0.0234 0.39928,-0.0571 0.58747,-0.12945 0.0532,-0.0178 0.10679,-0.0349 0.15975,-0.0534 0.0154,-0.005 0.0618,-0.0193 0.0455,-0.0183 -0.003,1.7e-4 -0.009,0.003 -0.013,0.004 0.0681,-0.0218 0.12552,-0.0395 0.19813,-0.0726 0.022,-0.01 -0.0456,0.0163 -0.0683,0.0244 0.17086,-0.0617 0.34339,-0.13134 0.49573,-0.2281 0.0624,-0.0398 0.12707,-0.0761 0.18709,-0.11941 0.1459,-0.10516 0.27076,-0.23738 0.38869,-0.37188 -0.0784,0.0776 0.10165,-0.11025 0.13389,-0.14641 0.005,-0.005 -0.021,0.0188 -0.0161,0.0137 0.0151,-0.0159 0.0313,-0.0308 0.0469,-0.0461 0.0921,-0.0896 0.18548,-0.17775 0.27899,-0.26582 0.0543,-0.0541 0.16538,-0.15599 0.30979,-0.30056 0.003,-0.004 0.0143,-0.0147 0.01,-0.012 -0.008,0.005 -0.0278,0.0254 -0.0211,0.0188 0.0389,-0.0382 0.10997,-0.096 0.12352,-0.1171 0.12245,-0.0885 0.25149,-0.1679 0.36595,-0.26714 0.0777,-0.0667 0.15516,-0.13317 0.23041,-0.20273 0.0113,-0.0105 0.0469,-0.0381 0.0323,-0.0331 -0.006,0.002 -0.0101,0.007 -0.0152,0.0109 -0.16144,0.10804 0.31461,-0.22181 0.21196,-0.16058 0.2159,-0.17082 0.27104,-0.23083 0.44995,-0.41141 0.0111,-0.0127 0.0223,-0.0255 0.0333,-0.0384 0.002,-0.003 0.009,-0.01 0.006,-0.008 -0.0131,0.0111 -0.0506,0.0469 -0.038,0.0351 0.10346,-0.0979 0.048,-0.0407 0.16601,-0.16387 0.001,-10e-4 -0.003,0.002 -0.005,0.003 0.17452,-0.18509 0.34458,-0.37602 0.46674,-0.60131 0.0155,-0.0294 0.0315,-0.0586 0.0466,-0.0883 2.6e-4,-4.2e-4 -9.8e-4,10e-6 -0.001,0 -0.0126,0.0191 -0.0251,0.0381 -0.0377,0.0571 0.0692,-0.11641 0.12749,-0.19984 0.18249,-0.32149 -0.004,0.007 -0.0152,0.03 -0.0127,0.0219 0.0318,-0.10406 0.12025,-0.20984 0.14691,-0.29596 0.0205,-0.0465 0.041,-0.0929 0.0613,-0.1395 0,0.005 0.009,-0.0158 0.0201,-0.0428 0.009,-0.0153 0.0244,-0.0359 0.016,-0.0402 0.003,-0.007 0.003,-0.006 0.006,-0.0145 0.003,-0.007 -0.002,0.002 -0.007,0.01 0.0692,-0.12769 0.11734,-0.24954 0.16338,-0.38588 -0.004,0.0118 -0.009,0.027 -0.0102,0.0268 0.006,-0.0158 0.007,-0.0195 0.012,-0.0321 0.004,-0.0116 0.008,-0.0226 0.0119,-0.0344 0.003,-0.009 -0.002,0.006 -0.007,0.0203 0.0564,-0.14898 0.0204,-0.0802 0.1115,-0.29414 -0.0447,0.0813 0.0468,-0.1191 0.0807,-0.19764 0.0266,-0.0354 0.0401,-0.0568 0.12435,-0.19417 0.0625,-0.11876 0.12534,-0.23956 0.1782,-0.36315 0.003,-0.007 -0.008,0.0134 -0.0115,0.0201 0.0371,-0.0739 0.0819,-0.1456 0.11166,-0.223 0.005,-0.0121 -0.0124,0.023 -0.0191,0.0341 -10e-4,0.002 10e-4,-0.004 0.002,-0.006 0.0165,-0.0284 0.0331,-0.0567 0.0496,-0.0851 0.0159,-0.0301 0.15445,-0.28673 0.14955,-0.28871 -3.4e-4,-1.7e-4 -5.1e-4,-6e-5 -8.5e-4,-1.7e-4 0.0706,-0.12135 0.16746,-0.24703 0.23189,-0.44731 0.0544,-0.15745 0.0617,-0.19928 0.12567,-0.36283 0.059,-0.18712 0.10644,-0.3762 0.13109,-0.57116 0.0132,-0.16193 0.0236,-0.32225 0.0181,-0.4847 0,-0.10466 1.7e-4,-0.20941 1.7e-4,-0.31407 8e-5,-0.10428 1.7e-4,-0.20848 3.4e-4,-0.31276 1.6e-4,-0.11524 6.7e-4,-0.23046 -9.9e-4,-0.34569 -0.004,-0.18753 -0.0134,-0.37549 -0.0499,-0.55997 -0.0296,-0.13334 -0.03,-0.13521 -0.0543,-0.21657 v -0.0711 -0.0611 -0.32083 -0.3144 -0.31309 -0.31983 -0.43085 -0.57577 -0.31852 c 0,-0.92686 -0.65543,-1.39036 -1.31081,-1.39036 z m 0.13291,9.32867 c -0.002,0.005 -0.003,0.009 -0.005,0.0142 -5.9e-4,0.002 -0.001,0.004 -0.002,0.005 0.004,-0.01 0.004,-0.01 0.007,-0.0194 z m -8.963373,4.59664 c -0.0015,-10e-4 -0.003,-0.002 -0.0044,-0.003 0.0063,0.005 0.02489,0.0215 0.01878,0.016 -0.0048,-0.004 -0.0096,-0.008 -0.01433,-0.0127 z m 1.458705,-2.24908 c 0.03059,0.029 -0.08667,-0.0944 0,0 z m -3.00124,-10.40939 c -0.0084,0.0193 -0.0372,0.0494 -0.056,0.0682 0.0188,-0.0223 0.0378,-0.0439 0.056,-0.0682 z m -2.542399,0.0392 c -0.01026,10e-4 -0.036,0.004 -0.03689,0.005 -8.52e-4,10e-4 5.06e-4,0.002 0.0021,0.002 -0.0098,2.5e-4 -0.01964,3e-5 -0.02948,0 0.0028,-5.9e-4 0.0052,-10e-4 0.0081,-0.002 0.0611,-0.006 0.06642,-0.007 0.05616,-0.006 z m -8.297343,0.0921 v 1.7e-4 c -0.0027,6.7e-4 -0.0051,0.002 -0.0077,0.002 0.0026,-8.4e-4 0.0052,-0.002 0.0077,-0.002 z m 3.643716,1.18432 c 0.0072,-0.005 0.0054,-0.003 -0.01565,0.0107 0.0127,-10e-4 -0.01039,0.009 -0.03771,0.0211 0.01882,-0.0108 -0.0072,0.004 0.01532,-0.009 0.01477,-0.008 0.03087,-0.0187 0.03804,-0.0232 z m 2.475203,0.0595 c 0.0206,0.008 0.05754,0.0188 0.0163,0.007 -0.0098,-0.004 -0.0056,-0.002 -0.0112,-0.004 -0.0016,-8.5e-4 -0.0038,-0.002 -0.0051,-0.003 z m 0.08432,0.0624 8.43e-4,5e-4 c 0.0025,0.002 0.0068,0.006 0.0086,0.008 0.0028,0.003 -0.0045,-0.004 -0.0094,-0.008 z m 0.03442,0.0209 c 0.01747,0.0106 0.04362,0.0265 0.04364,0.0265 -0.01577,-0.003 -0.02993,-0.0141 -0.04364,-0.0265 z m -3.291598,0.20768 c -0.01114,0.005 -0.0226,0.0101 -0.03393,0.0152 -0.0022,7.5e-4 -0.0035,0.001 -0.0066,0.002 0.005,-0.002 0.01011,-0.004 0.01515,-0.006 0.0085,-0.004 0.03364,-0.0151 0.02536,-0.011 z m -0.08416,0.0255 c 0.0021,-5.9e-4 0.004,-2.5e-4 0.0056,0.002 0.0017,0.002 -0.01924,0.0124 -0.04019,0.0222 0.0046,-0.003 0.0091,-0.005 0.01367,-0.008 0.0066,-0.004 0.01462,-0.0143 0.02092,-0.0161 z m -12.740655,2.33719 c -0.655387,0 -1.310809,0.4635 -1.310809,1.39036 -0.0057,0.21414 0.06353,0.40423 0.109522,0.60805 0.03614,0.16599 0.121728,0.35378 0.166342,0.46576 0.0681,0.19513 0.178144,0.37066 0.288711,0.54382 -0.0093,-0.014 -0.03552,-0.0571 -0.028,-0.042 0.07045,0.14121 0.166142,0.2734 0.252478,0.40531 0.02762,0.0373 0.05324,0.0761 0.08284,0.11183 0.03561,0.043 0.07389,0.0838 0.111499,0.12517 0.0072,0.009 0.03298,0.0403 0.04743,0.058 0.0041,0.006 0.02144,0.0341 0.05649,0.0904 0.05271,0.10219 0.116212,0.1979 0.181494,0.29233 0.0286,0.0724 0.04969,0.11421 0.109686,0.23387 0.07635,0.14797 0.175385,0.28173 0.276854,0.41305 0.0013,0.002 0.0019,0.003 0.0033,0.005 -2.53e-4,-5e-4 -0.0019,-0.004 -0.0016,-0.003 0.002,0.004 0.0016,0.003 0.0035,0.006 0.0064,0.01 0.01354,0.0186 0.01532,0.024 0.0014,0.004 -0.0036,-0.004 -0.0076,-0.0109 0.05324,0.0933 0.07412,0.12551 0.118581,0.18841 -0.0052,-0.007 -0.01238,-0.0176 -0.0082,-0.01 0.08526,0.15536 0.205019,0.28827 0.33005,0.41339 0.01534,0.0218 0.03705,0.0534 0.07082,0.10623 0.08967,0.12129 0.160746,0.20557 0.239632,0.29908 -8.4e-5,2.6e-4 -4.21e-4,-1.6e-4 -5.06e-4,1.7e-4 -0.0045,0.0141 0.01708,0.0241 0.02586,0.0361 0.05719,0.0778 0.119512,0.15537 0.178529,0.22827 0.152836,0.19222 0.330464,0.36174 0.517308,0.52027 0.120271,0.10285 0.24066,0.20532 0.362989,0.30551 0.13754,0.10615 0.225013,0.15454 0.392962,0.251 0.01778,0.0102 -0.07167,-0.0398 -0.05468,-0.0283 0.01047,0.007 0.02187,0.0127 0.03294,0.0188 0.0896,0.0603 0.178129,0.1145 0.270595,0.16486 0.05577,0.0417 0.214211,0.14781 0.262358,0.18117 0.168787,0.10895 0.350578,0.19632 0.542014,0.25758 0.218879,0.07 0.09509,0.0203 0.15646,0.0451 0.131774,0.0506 0.292031,0.0867 0.436113,0.13159 0.232618,0.0711 0.472461,0.11083 0.714118,0.13357 0.0039,0.003 0.05724,0.005 0.10557,0.007 0.122232,0.0346 0.246641,0.0655 0.372871,0.0812 0.1883,0.0504 0.38508,0.0644 0.578903,0.0743 0.09682,0.005 0.193789,0.005 0.290687,0.006 -0.0022,5.1e-4 -0.0031,10e-4 -1.69e-4,0.002 0.164272,0.0286 0.330499,0.0399 0.496886,0.0464 0.142638,0.004 0.285353,0.004 0.428042,0.004 0.122292,-9e-5 0.24465,-2.5e-4 0.366941,-3.4e-4 0.107667,-6e-5 0.215301,10e-6 0.322968,0 0.06993,0 0.03503,0 0.10491,0 0.991737,-0.90833 0.954663,-2.64017 0,-2.62162 -0.06995,0 -0.03506,0 -0.105076,0 -0.108187,10e-6 -0.216261,9e-5 -0.324449,1.7e-4 -0.121439,8e-5 -0.242866,2.5e-4 -0.364305,3.4e-4 -0.111271,-3e-5 -0.222594,-3e-5 -0.333838,-0.003 -0.07234,-0.002 -0.144087,-0.006 -0.215256,-0.0211 -0.180831,-0.0244 -0.362033,-0.0321 -0.544318,-0.0328 -0.144808,-0.005 0.02202,8.5e-4 -0.0672,-0.002 -0.0045,-1.7e-4 -0.01654,-0.004 -0.01334,-5e-4 0.0011,10e-4 0.009,0.003 0.01383,0.004 -0.01415,-0.004 -0.0011,-0.002 -0.07082,-0.0173 -0.116453,-0.0219 -0.165756,-0.0307 -0.201916,-0.0371 -0.0068,-0.002 0.0033,-1.7e-4 -0.01976,-0.005 -0.194998,-0.0488 -0.389947,-0.0964 -0.592738,-0.097 -0.06255,-0.003 -0.1243,-0.0133 -0.184459,-0.0313 -0.147259,-0.0439 -0.296747,-0.0799 -0.441054,-0.13307 -0.03705,-0.0108 -0.0476,-0.0138 -0.0644,-0.0186 -0.03381,-0.0275 -0.06719,-0.0559 -0.107381,-0.0739 -0.0021,-9.2e-4 -0.0021,-4.2e-4 -0.0023,-1.7e-4 -0.05287,-0.0396 -0.06728,-0.0468 -0.270429,-0.17408 -0.01715,-0.008 -0.04876,-0.041 -0.05501,-0.0311 -0.0545,-0.0387 -0.110024,-0.0759 -0.169306,-0.10738 0.03539,0.024 4.21e-4,0.002 -0.04612,-0.0255 -0.01971,-0.0133 -0.03297,-0.0219 -0.0471,-0.0306 -0.01091,-0.0102 -0.02707,-0.0247 -0.0527,-0.0459 -0.07135,-0.0593 -0.141542,-0.12118 -0.213117,-0.18067 -0.007,-0.006 -0.120818,-0.11028 -0.131591,-0.11677 -0.08474,-0.10794 -0.171855,-0.2137 -0.251819,-0.32544 -0.03669,-0.043 -0.07137,-0.0905 -0.110346,-0.13142 -0.0084,-0.011 -0.03104,-0.0419 -0.02965,-0.0394 -0.07128,-0.1058 -0.185466,-0.27404 -0.320662,-0.40086 -0.0043,-0.005 -0.0077,-0.009 -0.01202,-0.0143 -0.01384,-0.0216 -0.02778,-0.0431 -0.04167,-0.0647 -0.06048,-0.1076 -0.122972,-0.21411 -0.203729,-0.30847 0.0066,0.01 0.02698,0.0392 0.01993,0.0296 -0.03204,-0.0434 -0.03767,-0.0504 -0.05122,-0.0683 -6.75e-4,-0.002 -0.0076,-0.013 -0.01812,-0.0292 -0.04589,-0.1166 -0.09618,-0.23112 -0.168813,-0.33482 l -0.07494,-0.11529 c -0.0022,-0.003 -0.0045,-0.005 -0.0066,-0.008 -0.01028,-0.0146 -0.032,-0.0497 -0.04101,-0.0624 -0.08606,-0.15735 -0.153603,-0.26556 -0.280147,-0.43265 -0.06277,-0.0856 -0.0813,-0.10831 -0.162883,-0.20241 -0.01097,-0.0127 -0.03455,-0.0428 -0.04496,-0.0529 -0.07165,-0.12256 -0.171762,-0.3032 -0.132908,-0.22975 -0.0057,-0.009 -0.01164,-0.0171 -0.01713,-0.0258 -0.01664,-0.0266 -0.0152,-0.0228 -0.02306,-0.0344 -0.0059,-0.0136 -0.0054,-0.0147 -0.02388,-0.0519 -0.02843,-0.0602 0.02315,0.0497 -0.05534,-0.14016 -0.0044,-0.0105 -0.0036,-0.009 -0.0072,-0.0173 -0.0066,-0.0247 -0.01326,-0.0494 -0.02009,-0.0741 -0.0024,-0.009 -0.006,-0.0243 -0.0089,-0.0344 -0.07955,-0.80624 -0.690329,-1.20968 -1.301585,-1.20968 z m 0.357389,4.7172 c -0.0037,-0.006 -0.0035,-0.006 -0.0077,-0.0132 -7.59e-4,-10e-4 -0.0011,-0.002 -0.0018,-0.003 0.0013,0.003 0.0039,0.007 0.0096,0.016 z m 29.521605,-3.94181 c -0.002,0.0116 -0.004,0.0227 -0.006,0.0341 10e-4,-0.008 0.003,-0.0178 0.003,-0.0229 -1e-5,-4.3e-4 0.006,-0.0251 0.003,-0.0112 z m -28.268111,1.07743 c 0.0146,0.0153 0.03042,0.0298 0.03854,0.0493 0.01655,0.0402 -0.0064,0.005 -0.03854,-0.0493 z m 27.639641,0.21526 c -0.009,0.0181 -0.0229,0.0458 -0.0282,0.0558 -0.0273,0.0222 -10e-4,-0.0158 0.0282,-0.0558 z m -26.556111,1.44635 c 0.0034,0.004 0.0073,0.007 0.01038,0.0115 0.0066,0.009 0.02143,0.0375 0.01548,0.0285 -0.0087,-0.0133 -0.01724,-0.0267 -0.02586,-0.04 z m 28.673761,0.0916 c -0.0103,0.0145 -0.0209,0.0287 -0.0315,0.043 -0.002,0.003 0.004,-0.006 0.006,-0.009 0.0176,-0.0236 0.0138,-0.0184 0.0255,-0.0339 z m -31.642886,0.0667 c 0.02205,0.027 0.02708,0.0338 0.06818,0.0833 -0.0208,-0.0249 -0.04146,-0.0497 -0.06225,-0.0746 0.0049,0.008 0.02069,0.0297 0.01466,0.0229 -0.0035,-0.004 -0.0122,-0.0188 -0.02059,-0.0316 z m 0.05979,0.0975 c 0.01,0.016 0.0012,0.002 0.01367,0.0219 0.0019,0.003 0.007,0.0124 0.0051,0.009 -0.0064,-0.0104 -0.01256,-0.0208 -0.01878,-0.0313 z m 28.674086,0.0394 c -0.009,0.0193 -0.0107,0.0201 -0.024,0.0481 0.0105,-0.0214 0.0126,-0.0261 0.0156,-0.0329 0.003,-0.006 0.005,-0.009 0.008,-0.0152 z m -28.480734,0.26944 c 0.0064,0.009 0.01237,0.0186 0.01878,0.0277 0.0055,0.008 -0.0076,-0.0106 -0.0168,-0.0236 -5.91e-4,-0.001 -0.0014,-0.003 -0.002,-0.004 z m 0.0059,0.0127 c 0.0063,0.01 0.01273,0.0198 0.01878,0.0298 0.0051,0.008 -0.01138,-0.0162 -0.01631,-0.0247 -5.91e-4,-10e-4 -0.0018,-0.004 -0.0025,-0.005 z m 0.384892,0.63621 c 0.0054,0.007 0.01062,0.0139 0.01598,0.0208 0.0012,0.002 0.005,0.008 0.0036,0.006 -0.01899,-0.0254 -0.01107,-0.0152 -0.0196,-0.0268 z m 3.429614,0.007 c 0.002,10e-4 0.0023,0.002 0.0044,0.003 0.01057,0.008 0.0078,0.006 0.02998,0.0222 -0.02518,-0.0128 -0.02172,-0.0117 -0.03442,-0.025 z m 0.299416,0.18693 c 0.0015,7.6e-4 0.0038,10e-4 0.0051,0.002 0.02115,0.0145 0.08207,0.0617 0.06143,0.0464 -0.02207,-0.0163 -0.04442,-0.0322 -0.06654,-0.0484 z m 0.409102,0.26186 c 0.02491,0.0122 0.04944,0.0258 0.06193,0.0394 -0.02237,-0.0104 -0.04245,-0.0245 -0.06193,-0.0394 z m 21.32193,1.13953 c -0.007,0.008 -0.0144,0.0165 -0.0221,0.0244 -0.007,0.007 0.012,-0.0149 0.0189,-0.0216 0.002,-0.002 0.002,-0.001 0.003,-0.003 z m -1.906344,0.28706 0.0049,0.004 c 0.02246,0.0273 0.01792,0.0227 -0.0049,-0.004 z m -2.445065,1.23851 c 0.01225,0.0122 0.0072,0.008 0.01663,0.017 -0.0034,-0.003 -0.0077,-0.007 -0.01252,-0.0114 5.6e-5,-5.1e-4 -0.0057,-0.007 -0.0041,-0.006 z"
     id="path4791"
     inkscape:connector-curvature="0"
     sodipodi:nodetypes="ccccccccccccccccccccccccccccccccccccccccccccccccccccccccscccccccccccccccccccccccccccccccccccccccccsscccccccccccccccccccccccccccccccccccccccccccccccccccccccccccccccccccccccccccccccccccccscccccccccccccccccccccccccccccccccccccccccccccccccccccccccccccccccccccccccccccccccssscccccccccccccccccccccccccccccccccccccccccccccccccccccccccccccccccccccccccccccccccccccccccccccccccccccccccccccccccccccccccccccccsccccccccccccccccccccccccccccccccccccccccccccccccccccccccccccccccccccccccccccccczcccccccccccccccccccccccccccc" /><rect
     style="fill:none;fill-opacity:1;stroke:#000000;stroke-width:0.59347957;stroke-linecap:round;stroke-linejoin:round;stroke-miterlimit:0;stroke-dasharray:none;stroke-opacity:1;paint-order:normal"
     id="rect4521"
     width="71.217545"
     height="71.217545"
     x="0.29673979"
     y="770.37573" /></g>
<g
   inkscape:groupmode="layer"
   id="layer1"
   inkscape:label="Layer 1"
   style="display:inline"
   transform="translate(0,-770.07896)"><g
     id="g68"
     transform="matrix(0.08432393,0,0,0.08432393,11.009934,770.47473)">
	<path
   d="m 505.24,561.42 c -0.52,11.86 -0.32,24.97 -1.56,38.02 -0.98,10.32 -4.1,19.77 -10.51,28.07 -5.42,7.03 -10.93,13.95 -17.02,20.42 -7.23,7.69 -14.28,15.55 -21.29,23.45 -11.11,12.53 -24.88,18.71 -41.72,18.66 -12.64,-0.04 -25.12,-0.27 -36.41,-6.92 -9.32,-5.49 -18.05,-11.62 -21.84,-22.5 -0.36,-1.05 -0.83,-1.68 -2.04,-1.72 -1.24,-0.04 -1.54,0.72 -2.06,1.65 -9.55,17.09 -24.72,25.33 -43.72,26.68 -12.22,0.87 -24.48,0.07 -36.64,-1.6 -9.33,-1.29 -17.78,-5.22 -26.13,-9.26 -7.07,-3.43 -14.41,-6.32 -20.99,-10.81 -4.98,-3.4 -7.87,-7.96 -7.86,-13.7 0.02,-12.46 -2.3,-24.62 -3.84,-36.89 -0.6,-4.77 -0.5,-9.58 1.79,-14.04 1.25,-2.45 2.77,-4.67 5.65,-5.28 1.83,-0.39 2.29,-1.89 3.15,-3.13 2.13,-3.08 4.44,-5.94 8.77,-5.49 1.82,0.19 1.72,-0.96 1.62,-2.14 -0.81,-9.55 4.77,-14.82 12.55,-18.47 1.54,-0.72 1.97,-1.41 2.01,-3.08 0.2,-8.8 4.04,-13.7 12.52,-16.31 6.72,-2.06 13.39,-4.17 20.54,-4.52 6.15,-0.3 11.6,-3.23 17.01,-5.95 1.78,-0.89 3.56,-1.65 5.56,-1.87 4.84,-0.51 8.02,2.06 8.02,6.89 0,5.9 0.2,11.86 -2.09,17.49 -1.02,2.49 -0.5,3.64 2.45,3.5 6.06,-0.29 10.72,2.88 15.1,6.55 1.56,1.31 2.39,3.1 2.71,5.12 1.96,12.41 -5.36,24.98 -17.24,29.27 -22.86,8.25 -45.62,9.04 -68.2,-1.13 -2.63,-1.18 -4.89,-2.65 -6.69,-4.96 -0.86,-1.1 -1.11,-3.84 -3.41,-2.44 -2.22,1.35 -3.82,3.42 -2.71,6.4 0.68,1.82 2.13,2.96 3.65,3.98 8.47,5.68 17.88,8.98 27.97,9.81 13.9,1.14 27.93,1.32 41.78,0.17 10.17,-0.84 20.03,-4.5 28.68,-10.43 3.76,-2.58 5.98,-6.27 6.66,-10.83 0.52,-3.49 -0.08,-6.31 -3.73,-8 -2.58,-1.2 -4.4,-3.38 -3.34,-6.47 1.05,-3.07 3.49,-3.86 6.48,-2.83 2.44,0.84 2.42,-1.18 2.96,-2.48 4.42,-10.55 10.95,-19.28 21.18,-24.9 8.51,-4.68 17.49,-4.82 26.68,-2.93 2.95,0.61 4.92,2.43 4.46,5.65 -0.47,3.26 -2.91,4.23 -5.9,4.12 -3.92,-0.15 -7.74,-1.05 -11.76,-0.74 -12.24,0.93 -24.08,14.23 -27.02,28.06 -0.37,1.75 0.4,2.44 1.95,3.1 1.59,0.68 2.62,1.06 3.9,-0.63 6.26,-8.26 15.06,-10.86 24.94,-10.81 1.1,0.01 2.27,0.16 3.29,0.54 2.16,0.8 3.56,2.37 3.4,4.79 -0.15,2.38 -1.58,3.95 -3.9,4.36 -2.06,0.37 -4.19,0.47 -6.29,0.56 -8.04,0.34 -13.38,4.48 -16.56,11.68 -0.85,1.93 -1.47,4.02 -3.37,5.23 -1.36,0.86 -1.27,2.05 -1,3.34 2.79,13.63 2.1,27.47 2.49,41.24 0.07,2.39 -0.04,4.41 3.06,5.04 1.75,0.36 2.55,2.08 2.76,3.9 0.47,4.17 2.79,7.23 5.76,10 9.19,8.59 19.74,13.85 32.57,13.84 4.5,0 9.01,0.18 13.51,0.14 11.58,-0.12 21.72,-4.27 29.28,-12.89 11.78,-13.44 24.32,-26.2 35.82,-39.89 7.8,-9.29 12.49,-19.54 13.04,-31.75 1.06,-23.22 2.28,-46.5 0.58,-69.65 -1.86,-25.36 -13.61,-45.45 -36.72,-57.81 -4.07,-2.17 -8.53,-2.75 -13.03,-3.15 -1.26,-0.11 -2.53,-0.04 -3.8,-0.12 -4.77,-0.3 -7.26,-2.22 -7.12,-5.46 0.14,-3.28 2.62,-4.62 7.66,-4.49 20.98,0.54 35.99,11.08 47.51,27.84 10.94,15.93 16.82,33.26 16.07,52.75 -0.29,8.32 -0.03,16.64 -0.03,26.16 z m -178.36,86.22 0.05,0.13 c -0.67,-3.69 0.65,-6.7 3.54,-8.87 2.54,-1.91 4.68,-0.16 7.09,2.12 -0.15,-4.28 -0.55,-8.35 1.5,-10.91 3.22,-4 5.8,1.24 9.05,2.09 0.18,-8.8 -0.38,-17.24 -2.46,-26.41 -2.74,3.54 -5.24,6.16 -8.41,8.01 -12.59,7.32 -25.85,12.35 -40.71,12.12 -8.73,-0.14 -17.46,0.1 -26.19,-0.15 -6.03,-0.18 -12.13,-0.3 -17.99,-2.06 -11.13,-3.34 -22.08,-7.03 -30.54,-16.79 -0.13,2.3 -0.4,3.71 -0.25,5.07 1.44,13.28 3.83,26.46 4.14,39.86 0.07,3.01 2.02,4.88 4.42,6.27 10.61,6.15 21.64,11.52 33.23,15.45 14.39,4.88 29.51,4.38 44.37,3.56 11.78,-0.65 22.33,-5.21 29.92,-15.14 2.46,-3.23 4.26,-7.53 9.25,-8.02 1.07,-0.11 1.12,-1.14 1.13,-1.98 0.03,-3.85 0.01,-7.69 0.01,-12.63 -2.1,2.73 -3.55,5.36 -6.18,4.52 -5.28,-1.7 -5.35,1.41 -5.35,5.02 0,3.8 -1.56,6.56 -5.52,7.4 -1.86,0.4 -3.97,0.51 -4.32,-1.98 -0.35,-2.41 1.61,-2.08 3.17,-2.04 1.28,0.04 2.28,-0.56 2.44,-1.85 0.23,-1.94 -1.42,-1.34 -2.36,-1.42 -1.22,-0.1 -2.09,-0.77 -3.03,-1.37 z M 279.8,599.81 c 4.1,0.16 11.68,-0.91 19.06,-2.56 6.9,-1.54 14.48,-3 18.02,-10.33 4.39,-9.09 3.9,-14.02 -7.9,-14.51 -0.56,-0.02 -1.15,0.05 -1.68,-0.1 -5.32,-1.55 -11.86,-6.06 -8.77,-13.52 1.11,-2.68 1.46,-5.7 2.02,-8.59 0.6,-3.13 -0.79,-3.71 -3.38,-2.35 -6.87,3.61 -14.3,4.72 -21.93,5.51 -5.42,0.56 -10.72,2.27 -15.67,4.71 -1.63,0.8 -2.43,2.29 -2.39,4.16 0.03,1.26 0.49,2.19 1.88,2.35 8.57,0.97 15.27,7.47 24.01,8.07 2.52,0.17 3.99,2.07 3.96,4.69 -0.04,2.67 -1.73,4.25 -4.21,4.46 -4.76,0.41 -9.1,-0.01 -13.61,-2.82 -6.34,-3.96 -13.4,-7.37 -21.29,-2.95 -4.48,2.51 -5.97,5.18 -5.3,10.35 0.55,4.24 2.62,6.68 7.14,6.62 0.67,-0.01 1.47,0.2 2,0.59 7.32,5.37 15.83,5.98 28.04,6.22 z m 61.35,37.4 c 0.12,1.02 -0.29,2.55 1,2.46 1.91,-0.13 2.08,-2.02 2.23,-3.53 0.11,-1.17 -0.39,-2.68 -1.61,-2.53 -2.14,0.25 -1.21,2.38 -1.62,3.6 z"
   id="path2"
   inkscape:connector-curvature="0" />
	<path
   d="m 226.35,507.06 c 7.49,1.24 14.79,-2.37 22.24,-5.9 13.16,-6.24 25.9,-12.92 35.1,-24.74 2.56,-3.29 4.52,-6.53 4.33,-11.03 -0.19,-4.65 2.03,-6.51 6.51,-7.07 9.15,-1.13 18.24,0.28 27.36,0.51 6.11,0.16 11.44,2.9 16.08,6.75 9.31,7.73 15.3,17.4 17.39,29.49 2.59,15.01 -7.85,24.03 -18.67,26.99 -9.83,2.69 -20.05,2.83 -30.19,2.14 -7.06,-0.47 -13.32,-3.44 -18.87,-7.75 -1.57,-1.22 -2.85,-1.37 -4.9,-1.13 -11.03,1.33 -22.12,2.17 -32.99,-1.09 -1.91,-0.57 -3.3,0.14 -4.84,0.67 -17.99,6.13 -35.39,4.03 -52.4,-3.71 -5.06,-2.3 -7.3,-6.28 -7.39,-11.73 -0.15,-8.95 1.72,-17.28 6.74,-24.85 4.91,-7.41 9.98,-14.67 16.75,-20.53 1.1,-0.96 1.53,-1.7 0.7,-3.17 -1.71,-3.02 -0.31,-5.45 2.04,-7.39 6.01,-4.97 11.29,-10.62 15.55,-17.14 12.5,-19.15 36.57,-15.88 47.89,-5.03 6.7,6.42 12.25,13.96 19.59,19.77 2.12,1.68 2.79,4.3 1.08,6.84 -1.8,2.67 -4.44,2.87 -7.12,1.68 -3.41,-1.51 -5.89,-4.25 -8.49,-6.84 -5.16,-5.16 -9.53,-11.05 -15.49,-15.47 -6.89,-5.11 -20.71,-5.41 -26.84,3.53 -5.58,8.15 -11.88,15.7 -19.97,21.55 -0.94,0.68 -1.27,1.36 -0.67,2.47 1.93,3.57 0.12,6.19 -2.3,8.59 -6.15,6.08 -11.12,13.02 -15.35,20.54 -2.7,4.78 -2.61,9.97 -2.72,15.18 -0.03,1.79 1.11,2.29 2.47,2.93 8.34,3.91 17.2,5.01 27.38,4.94 z m 87.79,6.02 c 8.92,-0.19 15.86,0.26 22.4,-2.59 6.16,-2.69 8.5,-6.57 8.07,-13.23 -0.39,-5.98 -2.97,-11.09 -6.43,-15.78 -3.89,-5.27 -8.23,-10.46 -15.05,-11.43 -7.06,-1 -14.29,-0.86 -21.44,-1.22 -1.37,-0.07 -2.46,0.12 -2.73,1.84 -0.42,2.66 -1.44,5.14 -2.85,7.44 -0.86,1.41 -0.63,2.38 1.05,2.8 1.22,0.31 2.44,0.69 3.69,0.86 6.12,0.82 12.29,1.37 18.37,2.43 3.77,0.66 5.77,3.67 4.87,6.63 -1.03,3.36 -3.54,4.44 -6.91,4.02 -4.32,-0.53 -8.67,-0.82 -12.97,-1.47 -4.41,-0.67 -9.31,-0.32 -12.96,-3.14 -4,-3.09 -5.51,0.27 -7.41,2.21 -2.17,2.2 -1.42,4.71 0.6,6.69 8.82,8.63 17.9,16.73 29.7,13.94 z m -47.88,-8.56 c 0.06,0.28 0.12,0.56 0.19,0.84 1.86,0 3.73,0.07 5.59,-0.03 0.78,-0.04 2.32,0.51 1.95,-1.19 -0.25,-1.19 -0.9,-2.59 -2.57,-1.97 -1.78,0.64 -3.45,1.55 -5.16,2.35 z"
   id="path4"
   inkscape:connector-curvature="0" />
	<path
   d="m 251.84,223.34 c -0.09,-12.54 7.76,-22.57 20.66,-26.63 1.89,-0.6 4.85,-0.17 5.35,-2.57 0.59,-2.83 0.25,-5.88 0.13,-8.82 -0.06,-1.42 -1.4,-1.26 -2.3,-1.09 -5.72,1.06 -11.8,-0.33 -17.18,3.27 -3.3,2.21 -6.88,1.11 -9.56,-1.75 -2.74,-2.92 -2.87,-6.34 -0.95,-9.76 2.23,-3.97 6.03,-5.75 10.21,-6.89 5.36,-1.45 10.86,-1.6 16.35,-1.55 2.45,0.02 3.37,-0.8 2.75,-3.22 -0.14,-0.54 -0.13,-1.12 -0.16,-1.68 -0.29,-5.83 2.35,-9.71 7.02,-10.38 4.74,-0.68 8.55,2.62 9.71,8.43 1.41,7.05 1.41,7.05 8.89,6.22 1.82,-0.2 3.64,-0.47 5.47,-0.48 4.29,-0.02 7.56,2.49 8.39,6.28 0.91,4.12 -0.97,7.72 -5.07,9.58 -3.97,1.81 -8.24,2.05 -12.44,1.7 -4.26,-0.35 -3.92,2.14 -3.93,4.94 -0.01,2.85 -0.19,4.83 4,4.86 17.92,0.13 31.99,15.72 30.79,33.62 -0.57,8.57 -11.49,20.5 -20.06,21.73 -3.76,0.54 -6.58,-1.24 -8.33,-4.51 -1.82,-3.41 -1.06,-6.66 1.53,-9.3 1.66,-1.69 3.76,-2.94 5.66,-4.39 4.76,-3.63 5.43,-6.19 3.08,-11.67 -2.17,-5.07 -7.94,-8.8 -13.4,-8.73 -2.58,0.03 -4.04,0.67 -4.06,3.82 -0.03,7.19 -0.93,14.35 -2.96,21.26 -2.83,9.63 -10.21,15.32 -20.13,15.87 -7.9,0.44 -14.84,-4.64 -17.3,-12.75 -1.54,-5.01 -2.12,-10.18 -2.16,-15.41 z m 25.87,-10.18 c -1.04,0.08 -1.34,0.03 -1.57,0.14 -6.91,3.16 -9.88,13 -6.04,19.77 0.94,1.66 2.07,1.1 3.17,0.45 1.72,-1.03 2.29,-2.9 2.55,-4.67 0.74,-5.12 1.26,-10.26 1.89,-15.69 z"
   id="path6"
   inkscape:connector-curvature="0" />
	<path
   d="m 375.69,391.46 c 1.11,11.8 -3.6,22.38 -11.19,31.64 -7.74,9.44 -18.82,10.93 -30.2,10.96 -0.81,0 -1.84,-0.21 -2.39,-0.73 -5.37,-5.04 -12.66,-7.96 -15.24,-16.02 -3.48,-10.91 -6.68,-21.74 -6.51,-33.34 0.2,-14.38 8.72,-25.62 23.17,-30.18 12.85,-4.06 27.87,1.03 35.78,11.81 5.56,7.6 6.65,16.23 6.58,25.86 z m -54.44,-4.83 c -0.29,2.83 -0.44,5.06 0.03,7.31 1.81,8.75 7.26,10.98 14.69,5.96 7.78,-5.26 12.09,-20.52 8.01,-28.94 -1.77,-3.65 -4.35,-6.78 -8.8,-7.03 -4.43,-0.25 -7.32,2.5 -9.52,5.98 -3.35,5.27 -4.67,11.1 -4.41,16.72 z m 36.71,18.03 c -2.46,1.25 -6.37,1.08 -8.49,4.06 -1.22,1.71 1.55,8.23 3.85,9.2 2.85,1.19 4.01,-1.73 5.58,-3.22 1.29,-1.23 2.39,-2.8 3.15,-4.41 1.25,-2.66 -0.67,-5.62 -4.09,-5.63 z m 7.67,-8.83 c -0.15,-1.79 0.13,-3.97 -2.03,-4.17 -1.75,-0.17 -2.31,1.77 -2.71,3.25 -0.25,0.92 -0.36,1.93 -0.3,2.88 0.12,1.69 0.35,3.47 2.59,3.65 2.65,0.21 1.45,-2.17 2.07,-3.31 0.39,-0.68 0.29,-1.62 0.38,-2.3 z"
   id="path8"
   inkscape:connector-curvature="0" />
	<path
   d="m 293.67,261.57 c 4.36,-0.23 8.71,-0.46 13.07,-0.68 1.41,-0.07 3.19,-0.34 4.07,0.68 3.47,4.05 4.91,0.61 6.7,-1.61 4.15,-5.14 9.09,-9.22 15.43,-11.36 2.62,-0.88 5.61,-1.59 6.79,1.86 1.12,3.3 -1.63,4.4 -4.11,5.19 -6.39,2.04 -10.75,6.53 -14.38,11.85 -1.9,2.8 -3.7,5.27 -7.33,2.29 -0.43,-0.35 -0.93,-0.54 -1.55,-0.24 -7.72,3.67 -16.09,2.43 -24.11,2.58 -14.16,0.27 -27.36,3.56 -40.65,8.26 -16.58,5.86 -31.81,13.9 -44.87,25.38 -15.55,13.68 -24.51,31.08 -28.39,51.83 -3.64,19.46 -4.64,38.96 -3.28,58.38 0.94,13.48 1.21,26.94 1.51,40.4 0.14,6.55 -1.3,10.86 -7.37,12.59 -2.53,0.72 -4.79,2.34 -7.24,3.39 -2.74,1.17 -5.68,1.89 -7.23,-1.59 -1.39,-3.14 0.66,-4.99 3.26,-6.32 1.25,-0.64 2.43,-1.58 3.76,-1.89 5.58,-1.34 6.76,-4.82 6.12,-10.16 -0.65,-5.42 -0.31,-10.96 -0.41,-16.45 -0.08,-4.72 0.66,-9.55 -2.65,-13.73 -0.77,-0.97 -0.75,-2.69 -0.78,-4.08 -0.39,-14.93 -0.61,-29.94 1.07,-44.72 2.6,-22.77 7.83,-44.89 22.9,-63.38 4.3,-5.28 8.94,-10.18 14.21,-14.38 20.62,-16.43 44.32,-26.45 69.83,-32.32 8.36,-1.92 17.04,-1.78 25.63,-1.77 z"
   id="path10"
   inkscape:connector-curvature="0" />
	<path
   d="m 98.66,567.97 c 1.21,-16.09 0.17,-32.45 5.16,-48.12 6.58,-20.66 18.05,-38.01 35.35,-51.31 0.89,-0.68 1.78,-1.42 2.79,-1.87 2.08,-0.92 4.14,-0.95 5.79,0.92 1.78,2.02 1.62,4.32 0,6.15 -1.84,2.09 -4.11,3.82 -6.23,5.65 -18.7,16.09 -29.26,36.43 -31.41,60.99 -1.45,16.55 -1.89,33.15 -1.96,49.76 -0.04,9.06 1.76,17.58 6.52,25.4 8.35,13.73 16.81,27.29 30.28,36.9 17.86,12.75 37.89,16.46 59.26,14.97 3.06,-0.21 6.01,-1.26 8.83,-2.68 2.31,-1.16 4.78,-1.15 6.37,1.28 1.63,2.48 0.95,4.83 -1.1,6.84 -1.78,1.75 -4.04,2.58 -6.38,3.08 -17.85,3.83 -35.34,2 -52.19,-4.49 -29.15,-11.23 -46.32,-34.17 -58.54,-61.6 -2.61,-5.87 -2.75,-12.34 -2.84,-18.68 -0.1,-7.71 -0.33,-15.46 0.3,-23.19 z"
   id="path12"
   inkscape:connector-curvature="0" />
	<path
   d="m 172.82,402.92 c -0.26,-4.93 0.03,-10.11 1.97,-15.05 5.83,-14.83 18.42,-19.07 32.54,-16.45 2.98,0.55 5.24,2.69 6.92,5.22 5.1,7.64 7.87,16.12 8.83,25.2 0.28,2.65 0.21,5.35 0.55,7.99 2.33,18.11 -7.05,25.52 -22.96,28.52 -3.13,0.59 -6.97,1.87 -9.37,-0.55 -3.66,-3.67 -9.73,-3.29 -12.42,-8.5 -2.91,-5.62 -4.32,-11.55 -5.23,-17.68 -0.4,-2.76 -0.54,-5.58 -0.83,-8.7 z m 9.4,-5.84 c 0,1.68 -0.22,3.4 0.04,5.04 0.67,4.25 3.84,6.56 7.72,5.85 7.8,-1.42 14.66,-12.84 12.02,-20.31 -1.45,-4.1 -4.67,-6.84 -8.83,-7.57 -4.19,-0.73 -6.56,2.37 -8.49,5.67 -2.05,3.51 -2.67,7.33 -2.46,11.32 z m 31.45,22.79 c -0.34,-2 0.13,-4.78 -3.37,-4.99 -2.94,-0.17 -5.35,2.56 -5.01,6.34 0.18,1.96 -1.05,5.21 2.68,5.39 3.14,0.16 5.65,-2.87 5.7,-6.74 z m 2.21,-12.55 c -0.85,-1.07 0.37,-3.58 -2.05,-3.71 -1.57,-0.08 -2.44,1.72 -1.91,3.07 0.72,1.83 -0.3,5.04 1.87,5.3 2.02,0.24 1.5,-2.76 2.09,-4.66 z"
   id="path14"
   inkscape:connector-curvature="0" />
	<path
   d="m 395.48,510.31 c 18.16,-0.15 33.45,7.35 48.06,16.74 4.03,2.59 6.62,6.51 8.26,10.95 1.75,4.75 3.29,9.58 4.72,14.43 1.17,3.95 -0.07,6.95 -3.08,7.59 -3.68,0.79 -5.44,-1.55 -6.46,-4.59 -1.29,-3.86 -2.44,-7.78 -3.64,-11.67 -1.44,-4.64 -4.28,-8.04 -8.48,-10.59 -14.4,-8.75 -29.8,-14.73 -46.78,-12.44 -18.02,2.44 -33.31,9.94 -40.83,28.29 -2.68,6.53 -4.99,13.13 -6.71,19.96 -0.24,0.95 -0.45,1.92 -0.81,2.84 -1.1,2.83 -3.05,4.5 -6.2,3.65 -3.25,-0.88 -3.9,-3.5 -3.25,-6.37 2.07,-9.2 4.77,-18.16 8.89,-26.73 11.47,-23.84 32.37,-30.58 56.31,-32.06 z"
   id="path16"
   inkscape:connector-curvature="0" />
	<path
   d="m 446.17,400.48 c 1.05,10.79 -0.47,21.84 -1.17,32.92 -0.2,3.2 -1.56,5.6 -5.05,5.53 -3.26,-0.07 -4.55,-2.46 -4.76,-5.42 -0.35,-4.8 0.59,-9.53 0.81,-14.29 1.18,-25.84 0.6,-51.54 -9.14,-76.07 -7.05,-17.75 -16.59,-33.75 -32.4,-45.3 -2.36,-1.72 -4.32,-4.03 -6.27,-6.24 -2.03,-2.29 -2.31,-4.97 -0.01,-7.17 2.19,-2.11 4.8,-1.66 6.81,0.36 7.94,7.98 16.94,14.85 24.32,23.4 1.19,1.38 2.25,2.89 3.18,4.46 15.99,26.95 24.97,55.83 23.68,87.82 z"
   id="path18"
   inkscape:connector-curvature="0" />
	<path
   d="m 195.73,226.09 c 0,11.95 -3.58,22.79 -7.24,33.57 -1.49,4.38 -5.84,6.5 -9.75,5.43 -4.52,-1.24 -6.89,-5.07 -5.9,-10.17 1.52,-7.86 4.77,-15.31 5.65,-23.34 1.52,-13.96 -0.17,-11.74 -10.12,-10.32 -4.04,0.58 -7.95,1.68 -11.66,3.47 -5.07,2.44 -9.89,1.19 -12.13,-2.99 -2.29,-4.26 -0.95,-9.08 4.17,-11.7 10.09,-5.16 21.01,-7.44 32.27,-6.21 8.11,0.88 13.41,7.15 14.39,15.44 0.28,2.36 0.23,4.77 0.32,6.82 z"
   id="path20"
   inkscape:connector-curvature="0" />
	<path
   d="m 426.77,240.84 c 0.36,-11.12 0.75,-22.24 5.55,-32.61 0.59,-1.27 1.29,-2.53 2.17,-3.59 2.87,-3.47 6.97,-4.3 10.59,-2.29 3.59,1.99 5.38,6.11 3.55,10.16 -4.99,11.05 -4.89,22.71 -4.69,34.41 0.04,2.14 -0.55,5.1 1.9,5.99 2.15,0.77 3.57,-1.76 5.15,-3.08 1.07,-0.91 1.98,-2.02 3.09,-2.87 3.33,-2.56 7.59,-2.55 10.52,-0.08 3.06,2.57 3.77,6.48 1.89,10.35 -4.07,8.38 -15.69,14.15 -24.74,12.49 -6.46,-1.19 -10.56,-4.94 -12.76,-10.97 -2.12,-5.79 -2.53,-11.8 -2.22,-17.91 z"
   id="path22"
   inkscape:connector-curvature="0" />
	<path
   d="m 98.86,240.1 c 0,-0.29 -0.06,-1.42 0.01,-2.54 0.31,-4.92 3.31,-8.26 7.65,-8.57 4.35,-0.31 8.12,2.56 8.77,7.38 0.86,6.4 1.2,12.86 1.76,19.3 0.3,3.42 1.44,6.57 2.92,9.63 1.11,2.29 2.28,3.02 4.15,0.62 1.91,-2.44 4.15,-4.6 6.83,-6.21 5.03,-3.03 9.99,-2.37 12.77,1.69 2.66,3.88 1.56,8.51 -3.08,12.05 -2.38,1.82 -4.24,4.09 -6.25,6.25 -7.54,8.06 -16.91,8.16 -24.61,0.15 -6.93,-7.2 -8.99,-16.36 -9.98,-25.86 -0.46,-4.35 -0.6,-8.71 -0.94,-13.89 z"
   id="path24"
   inkscape:connector-curvature="0" />
	<path
   d="m 240.3,562.38 c -0.03,2.8 -1.24,4.67 -3.71,5.24 -2.95,0.68 -5.06,-0.96 -5.84,-3.62 -3.18,-10.77 -11.97,-16.28 -20.42,-22.09 -3.46,-2.38 -7.5,-3.03 -11.65,-3.11 -11.41,-0.22 -22.77,0.41 -34.06,2.03 -8.83,1.27 -14.57,6.71 -18.96,14.01 -1.01,1.68 -1.93,3.46 -3.19,4.94 -1.69,1.97 -3.91,2.91 -6.36,1.29 -2.35,-1.55 -2.88,-3.99 -1.73,-6.33 5.8,-11.86 13.91,-21.31 27.72,-23.63 12.36,-2.08 24.87,-2.65 37.41,-2.41 12.52,0.25 21.36,7.75 30.13,15.32 5.24,4.52 8.9,10.09 10.42,16.94 0.11,0.54 0.18,1.1 0.24,1.42 z"
   id="path26"
   inkscape:connector-curvature="0" />
	<path
   d="m 88.84,242.88 c -1.91,15.42 1.86,29.04 4.65,42.78 0.33,1.62 1.36,2.72 2.39,3.88 2.69,3.04 3.51,6.35 1.27,10.02 -2,3.28 -5.83,4.72 -9.95,3.63 -4.12,-1.08 -6.86,-3.77 -8.16,-7.79 -4.64,-14.38 -6.89,-29.21 -7.87,-44.24 -0.23,-3.53 0.55,-7.02 1.72,-10.34 1.5,-4.23 5.68,-6.51 9.68,-5.58 3.96,0.91 6.42,4.4 6.27,7.64 z"
   id="path28"
   inkscape:connector-curvature="0" />
	<path
   d="m 366.57,219.74 c 0.68,-0.13 0.99,-0.11 1.21,-0.24 5.56,-3.18 9.09,-3.07 12.11,0.39 3.02,3.46 2.64,7.98 -1.08,12.62 -7.62,9.54 -16.48,9.57 -24.22,0.09 -7.05,-8.64 -6.43,-25.54 1.25,-33.65 3.12,-3.3 7.69,-3.97 11.08,-1.63 3.41,2.36 4.5,6.72 2.54,10.92 -1.66,3.58 -3.44,7.07 -2.89,11.5 z"
   id="path30"
   inkscape:connector-curvature="0" />
	<path
   d="m 476.65,284.31 c 7.35,-1.87 10.54,-1.18 12.86,2.65 2.39,3.94 1.3,7.7 -3.77,12.93 -2.05,2.11 -4.01,4.36 -6.24,6.27 -5.78,4.93 -13.35,3.73 -17.46,-2.61 -4.28,-6.59 -4.14,-22.32 0.24,-28.8 2.41,-3.56 6.65,-4.98 10.31,-3.46 3.61,1.51 5.45,5.04 4.8,9.32 -0.19,1.2 -0.48,2.39 -0.74,3.7 z"
   id="path32"
   inkscape:connector-curvature="0" />
	<path
   d="m 503.59,356.65 c 0.43,-6.5 0.85,-13.51 1.37,-20.52 0.1,-1.39 0.45,-2.77 0.82,-4.13 1.48,-5.45 5.44,-8.37 10.04,-7.47 4.55,0.89 6.86,4.7 6.29,10.34 -0.77,7.55 -1.39,15.11 -1.33,22.72 0.02,2.83 -0.23,5.64 -1.15,8.32 -1.35,3.99 -4.9,6.37 -8.67,5.96 -4.05,-0.44 -7.02,-3.57 -7.33,-7.97 -0.17,-2.23 -0.04,-4.48 -0.04,-7.25 z"
   id="path34"
   inkscape:connector-curvature="0" />
	<path
   d="m 419.41,227.26 c 0,1.93 0.02,2.63 0,3.33 -0.22,5.68 -3.36,9.4 -8.06,9.54 -4.61,0.14 -8.34,-3.55 -8.85,-8.96 -0.25,-2.65 -0.16,-5.34 -0.35,-8 -0.26,-3.68 -1.04,-7.06 -3.64,-10.06 -3.11,-3.6 -2.77,-8.06 0.19,-11.08 2.95,-3.02 7.36,-3.38 11.16,-0.67 5.26,3.74 7.77,9.15 8.61,15.36 0.52,3.9 0.71,7.84 0.94,10.54 z"
   id="path36"
   inkscape:connector-curvature="0" />
	<path
   d="m 488.52,322.16 c 4.85,0.14 9.09,4.84 7.76,9.49 -2.2,7.71 -2.2,15.53 -2.33,23.39 -0.05,2.96 -0.97,5.53 -3.34,7.43 -4.96,3.99 -12.41,1.12 -12.98,-5.52 -0.77,-8.94 -1.06,-18.01 1.71,-26.77 1.62,-5.1 5.24,-8.13 9.18,-8.02 z"
   id="path38"
   inkscape:connector-curvature="0" />
	<path
   d="m 205.68,564.25 c 5.54,-0.45 10.93,0.23 16.22,1.88 4.19,1.31 6.16,3.7 5.44,6.75 -0.72,3.06 -3.54,4.13 -7.98,2.93 -10.22,-2.75 -20.34,-1.74 -30.34,1 -4.4,1.21 -7.85,3.58 -8.29,8.85 -0.25,3.01 -2.13,5.08 -5.35,4.7 -3.16,-0.37 -4.5,-2.82 -4.41,-5.77 0.2,-6.77 3.62,-11.67 9.42,-14.93 7.86,-4.4 16.6,-4.85 25.29,-5.41 z"
   id="path40"
   inkscape:connector-curvature="0" />
	<path
   d="m 513.92,295.11 c 0,0.93 0.16,3.06 -0.03,5.15 -0.48,5.18 -3.74,8.5 -8.2,8.56 -4.5,0.07 -7.92,-3.11 -8.46,-8.27 -0.33,-3.07 -0.18,-6.18 -0.26,-9.28 -0.07,-2.67 -0.21,-5.3 -0.92,-7.93 -1.42,-5.24 0.73,-9.63 5.09,-10.99 4.39,-1.37 9.04,1.19 11.04,6.15 0.42,1.04 0.77,2.14 0.93,3.24 0.56,4.04 1.09,8.09 0.81,13.37 z"
   id="path42"
   inkscape:connector-curvature="0" />
	<path
   d="m 325.72,175.7 c 3.22,-0.08 5.65,1.46 7.56,3.88 2.52,3.2 5.29,6.14 8.27,8.93 3.74,3.5 4.18,8.26 1.4,11.68 -2.83,3.47 -7.58,4.09 -11.74,1.26 -5.06,-3.44 -9.09,-7.98 -12.17,-13.19 -3.35,-5.67 0.41,-12.42 6.68,-12.56 z"
   id="path44"
   inkscape:connector-curvature="0" />
	<path
   d="m 176.77,183.43 c 0.16,-1.24 0.27,-2.5 0.49,-3.75 0.87,-4.95 4.58,-8.27 8.85,-7.95 4.27,0.32 7.46,3.67 7.66,8.6 0.14,3.35 1.09,6.28 2.68,9.19 2.52,4.59 1.39,9.54 -2.47,11.93 -4,2.48 -8.6,1.39 -11.69,-3.14 -3.05,-4.46 -5.2,-9.34 -5.52,-14.88 z"
   id="path46"
   inkscape:connector-curvature="0" />
	<path
   d="m 186.57,611.81 c -0.33,-6.22 2.05,-11.36 6.18,-15.67 3.1,-3.24 6.43,-6.27 9.85,-9.18 2.37,-2.02 5.24,-3.29 8.36,-3.76 2.65,-0.4 4.87,0.51 5.75,3.13 0.94,2.8 -0.18,5.25 -2.93,6.14 -5.07,1.63 -8.46,5.34 -12.15,8.77 -3.48,3.25 -5.46,7.07 -5.17,11.92 0.05,0.83 -0.03,1.69 -0.16,2.52 -0.46,2.96 -1.85,5.11 -5.18,4.94 -3.1,-0.16 -4.31,-2.3 -4.54,-5.1 -0.09,-1.25 -0.01,-2.52 -0.01,-3.71 z"
   id="path48"
   inkscape:connector-curvature="0" />
	<path
   d="m 201.08,184.64 c -0.12,-3.71 0.72,-7.27 1.89,-10.73 1.6,-4.74 5.9,-7.27 10.11,-6.15 4.43,1.18 7.09,5.71 6.07,10.57 -0.61,2.89 -1.22,5.76 -1.29,8.73 -0.14,5.77 -3.23,9.38 -8,9.49 -4.75,0.11 -8.21,-3.4 -8.77,-8.97 -0.1,-0.97 -0.01,-1.96 -0.01,-2.94 z"
   id="path50"
   inkscape:connector-curvature="0" />
	<path
   d="m 329.25,274.65 c 0.86,-5 3.89,-8.95 8.4,-11.65 7.63,-4.57 16.18,-5.33 24.82,-5.4 2.03,-0.01 3.64,0.99 3.84,3.15 0.23,2.38 -1.28,3.63 -3.49,3.95 -4.86,0.69 -9.81,0.7 -14.61,1.97 -5.54,1.47 -10.34,3.66 -11.59,10.12 -0.4,2.06 -2.07,3.01 -4.17,2.61 -2.33,-0.44 -3.01,-2.26 -3.2,-4.75 z"
   id="path52"
   inkscape:connector-curvature="0" />
	<path
   d="m 482.96,387.62 c -5.04,-0.08 -9.14,-4.16 -9.13,-9.11 0.01,-5.11 4.37,-9.34 9.49,-9.21 5,0.13 9.12,4.25 9.13,9.15 0.01,5.14 -4.25,9.25 -9.49,9.17 z"
   id="path54"
   inkscape:connector-curvature="0" />
	<path
   d="m 522.56,388.41 c -0.06,5.06 -4.16,9.14 -9.17,9.14 -5.14,-0.01 -9.39,-4.42 -9.21,-9.57 0.18,-5.03 4.39,-8.99 9.43,-8.86 5.1,0.13 9,4.18 8.95,9.29 z"
   id="path56"
   inkscape:connector-curvature="0" />
	<path
   d="m 375.2,269.88 c 1.26,-0.07 2.52,-0.15 3.78,-0.2 2.9,-0.12 6.23,-0.23 6.24,3.69 0,3.81 -3.33,3.82 -6.22,3.96 -3.07,0.15 -6.16,0.29 -9.21,0.71 -2.9,0.4 -5.79,0.82 -8.53,2.11 -2.17,1.02 -4.6,1.15 -5.64,-1.64 -0.95,-2.56 0.52,-4.34 2.75,-5.4 3.59,-1.71 7.45,-2.39 11.37,-2.78 1.81,-0.18 3.63,-0.26 5.45,-0.39 0.02,-0.02 0.01,-0.04 0.01,-0.06 z"
   id="path58"
   inkscape:connector-curvature="0" />
	<path
   d="m 258.94,641.58 c 0.45,-0.79 0.76,-1.25 0.98,-1.74 0.48,-1.12 1.18,-2.1 2.51,-1.67 1.42,0.46 1.2,1.74 0.89,2.85 -0.85,3.05 -0.38,6.16 -0.54,9.24 -0.15,2.84 0.87,4.16 3.9,3.8 1.41,-0.17 3.57,-0.72 3.77,1.48 0.21,2.38 -2.11,2.26 -3.68,2.46 -6.59,0.82 -7.75,-0.24 -7.73,-6.77 0.01,-1.68 0,-3.36 0,-5.43 -1.92,0.97 -3.59,1.86 -5.3,2.67 -1.33,0.63 -2.88,1.15 -3.6,-0.64 -0.61,-1.53 0.8,-2.14 1.92,-2.79 1.4,-0.8 4.14,-0.97 2.02,-3.67 -0.92,-1.16 -2.29,-1.89 -3.72,-1.58 -1.65,0.36 -1.25,2.01 -1.28,3.18 -0.09,3.66 -0.03,7.32 -0.08,10.98 -0.01,1.18 -0.3,2.37 -1.71,2.52 -1.76,0.18 -2.08,-1.24 -2.15,-2.51 -0.12,-2.25 0,-4.5 -0.05,-6.75 -0.02,-0.93 0.18,-2.17 -1.2,-2.31 -1.46,-0.15 -1.38,1.08 -1.47,2.03 -0.24,2.38 -0.44,4.76 -0.68,7.14 -0.11,1.15 -0.29,2.39 -1.73,2.51 -1.44,0.12 -2.07,-0.97 -1.96,-2.18 0.22,-2.39 -1.24,-2.84 -3.09,-3.57 -3.84,-1.52 -5.82,-6.8 -4.73,-11.57 1.1,-4.78 3.95,-7.36 8.02,-7.19 1.7,0.07 3.82,0.21 3.7,2.43 -0.11,2.03 -2.04,1.25 -3.38,1.22 -2.99,-0.07 -4.24,1.85 -4.7,4.44 -0.51,2.85 0.25,5.32 2.68,7.08 0.59,0.43 1.34,0.63 1.72,-0.29 0.37,-0.88 0.98,-1.9 0.05,-2.71 -1,-0.88 -2.14,-1.73 -1.16,-3.12 0.87,-1.23 2.34,-0.68 3.56,-0.54 2.57,0.29 4.58,0.45 5.86,-2.85 1.13,-2.94 6.87,-2.29 9.97,0.81 0.76,0.75 1.36,1.72 2.39,3.04 z"
   id="path60"
   inkscape:connector-curvature="0" />
	<path
   d="m 293.77,645.37 c 0.04,-4.54 4.3,-7.31 10.95,-7.14 4.62,0.12 7.69,3.6 7.7,8.73 0.01,4.48 -5.97,11.14 -9.91,11.03 -4.78,-0.12 -8.81,-5.94 -8.74,-12.62 z m 3.69,-0.41 c -0.06,4.83 2.44,8.98 4.82,9.07 2.28,0.09 6.53,-4.26 6.48,-6.86 -0.07,-2.93 -1.01,-5.44 -4.63,-5.09 -2.76,0.26 -6.14,-0.23 -6.67,2.88 z"
   id="path62"
   inkscape:connector-curvature="0" />
	<path
   d="m 326.88,647.64 c -1.15,5.31 -5.12,7.35 -9.87,8.44 -1.25,0.29 -2.73,0.47 -3.14,-1.17 -0.4,-1.63 0.91,-2.21 2.22,-2.45 1.99,-0.37 3.73,-1.19 5.24,-2.53 0.76,-0.67 1.41,-1.43 0.99,-2.55 -0.38,-0.99 -1.31,-0.85 -2.13,-0.95 -5.73,-0.75 -7.94,-4.43 -5.96,-9.96 0.76,-2.11 8.63,-4.57 10.52,-3.18 1.46,1.07 1.03,2.29 -0.41,2.89 -1.27,0.53 -2.71,0.84 -4.09,0.9 -2.28,0.11 -2.76,1.32 -2.73,3.31 0.03,1.97 1.15,2.43 2.73,2.28 3.82,-0.36 5.6,1.87 6.68,5.08 0,0.02 -0.05,-0.11 -0.05,-0.11 z"
   id="path64"
   inkscape:connector-curvature="0" />
	<path
   d="m 287.33,653.63 c 1.45,1.27 2.92,0.96 4.28,1.11 1.2,0.13 2.31,0.41 2.25,1.92 -0.05,1.25 -1.03,1.56 -2.07,1.66 -3.08,0.29 -6.15,0.56 -9.23,0.82 -1.06,0.09 -1.99,-0.22 -2.4,-1.3 -0.4,-1.06 0.1,-1.91 0.84,-2.64 1.71,-1.68 3.35,-3.43 4.39,-5.63 2.26,-4.74 0.79,-7.07 -4.28,-6.73 -1.07,0.07 -2.06,0.09 -2.46,-1.03 -0.51,-1.41 0.54,-2.01 1.61,-2.51 5.28,-2.5 10.16,1.21 9.76,7.47 -0.17,2.55 -1.38,4.78 -2.69,6.86 z"
   id="path66"
   inkscape:connector-curvature="0" />
</g></g></svg>